<?xml version="1.0" encoding="iso-8859-1"?>
<!-- Generator: Adobe Illustrator 19.0.0, SVG Export Plug-In . SVG Version: 6.00 Build 0)  -->
<svg version="1.1" id="Layer_1" xmlns="http://www.w3.org/2000/svg" xmlns:xlink="http://www.w3.org/1999/xlink" x="0px" y="0px"
	 viewBox="0 0 512.001 512.001" style="enable-background:new 0 0 512.001 512.001;" xml:space="preserve">
<g>
	<g>
		<path d="M437.019,74.981C388.667,26.629,324.379,0,256,0S123.334,26.63,74.982,74.982C26.63,123.334,0.001,187.621,0.001,255.999
			c0,68.379,26.629,132.668,74.981,181.019C123.333,485.37,187.619,512,256,512.001c68.381,0,132.667-26.63,181.019-74.982
			C485.371,388.667,512,324.379,512,256C512,187.619,485.371,123.333,437.019,74.981z M471.808,154.944
			c-20.159,56.275-52.895,104.989-94.843,141.045c-37.179,31.958-80.908,52.887-123.981,59.491
			c-5.908-32.568-2.834-64.318,8.921-91.158c37.596-4.106,74.838-22.85,105.411-53.19c30.997-30.759,52.792-70.885,63.617-116.808
			C447.479,112.216,461.321,132.639,471.808,154.944z M256,17.673c61.538,0,117.701,23.445,160.032,61.871
			c-2.636,13.713-6.286,26.908-10.897,39.484c-46.639-54.922-120.196-89.261-201.992-95.437
			C220.15,19.724,237.839,17.673,256,17.673z M153.126,41.043C252.88,34.303,345.8,71.1,397.426,137.554
			c-10.426,22.322-24.133,42.293-40.787,59.239c-29.501-36.497-70.995-64.82-120.64-82.224
			C186.624,97.26,131.96,92.058,76.635,99.248C97.824,75.033,123.82,55.126,153.126,41.043z M60.669,119.618
			c58.784-10.66,117.308-6.662,169.482,11.628c46.266,16.219,86.256,43.625,113.512,77.626
			c-25.251,21.4-54.285,34.612-83.406,37.852c-22.355-30.506-57.208-53.388-98.769-64.693
			c-42.189-11.476-87.899-10.273-133.136,3.36C35.724,161.674,46.718,139.539,60.669,119.618z M17.675,255.998
			c0-17.258,1.862-34.09,5.363-50.318c13.236-4.596,26.533-8.047,39.775-10.348c-24.196,67.713-17.24,148.396,18.125,222.2
			C41.693,375.032,17.675,318.27,17.675,255.998z M121.175,452.409c-55.629-82.986-70.18-181.778-38.462-259.664
			c24.544-2.133,48.693-0.246,71.696,5.703c-16.855,43.799-20.637,93.895-10.887,145.588
			c9.708,51.476,32.577,101.473,66.532,145.827C177.598,483.498,147.486,470.527,121.175,452.409z M256,494.327
			c-6.859,0-13.647-0.309-20.362-0.879c-38.667-45.602-64.496-98.32-74.75-152.686c-9.086-48.177-5.348-96.513,10.467-137.117
			c31.159,11.169,57.118,29.706,74.485,53.305c-15.241,34.613-17.631,76.237-6.642,117.883
			c11.154,42.275,35.052,81.257,69.476,113.617C291.723,492.289,274.096,494.327,256,494.327z M328.902,482.908
			c-10.597-9.165-20.232-18.954-28.845-29.269c70.881-12.931,137.4-59.458,183.643-127.206
			C460.75,400.475,402.599,459.174,328.902,482.908z M287.867,437.699c-14.118-20.191-24.56-42.048-30.91-64.943
			c46.358-7.3,91.634-29.073,131.529-63.365c39.724-34.144,71.588-78.948,93.024-130.531c8.303,24.206,12.819,50.154,12.819,77.139
			c0,6.162-0.236,12.272-0.698,18.319C449.599,364.115,371.252,426.214,287.867,437.699z"/>
	</g>
</g>
<g>
</g>
<g>
</g>
<g>
</g>
<g>
</g>
<g>
</g>
<g>
</g>
<g>
</g>
<g>
</g>
<g>
</g>
<g>
</g>
<g>
</g>
<g>
</g>
<g>
</g>
<g>
</g>
<g>
</g>
</svg>
